<svg xmlns="http://www.w3.org/2000/svg" viewBox="0 0 460 120" width="460" height="120">
  <!-- Chip body -->
  <rect x="22" y="22" width="76" height="76" rx="8" fill="none" stroke="#1b1b1b" stroke-width="6"/>
  <g fill="#1b1b1b">
    <rect x="36" y="10" width="6" height="12" rx="1"/>
    <rect x="57" y="10" width="6" height="12" rx="1"/>
    <rect x="78" y="10" width="6" height="12" rx="1"/>
    <rect x="36" y="98" width="6" height="12" rx="1"/>
    <rect x="57" y="98" width="6" height="12" rx="1"/>
    <rect x="78" y="98" width="6" height="12" rx="1"/>
    <rect x="10" y="36" width="12" height="6" rx="1"/>
    <rect x="10" y="57" width="12" height="6" rx="1"/>
    <rect x="10" y="78" width="12" height="6" rx="1"/>
    <rect x="98" y="36" width="12" height="6" rx="1"/>
    <rect x="98" y="57" width="12" height="6" rx="1"/>
    <rect x="98" y="78" width="12" height="6" rx="1"/>
  </g>
  <g fill="none" stroke="#1b1b1b" stroke-width="5" stroke-linejoin="round" stroke-linecap="round">
    <path d="M40 60 L60 43 L80 60"/>
    <path d="M45 60 L45 80 L75 80 L75 60"/>
  </g>
  <rect x="55" y="68" width="10" height="12" fill="#1b1b1b"/>
  <!-- Wordmark -->
  <text x="128" y="58" font-family="Arial, Helvetica, sans-serif" font-weight="800" font-size="40" fill="#E8732B" letter-spacing="0.5">BHARATH</text>
  <text x="128" y="98" font-family="Arial, Helvetica, sans-serif" font-weight="800" font-size="36" fill="#5B9B36" letter-spacing="3">AUTOMATION</text>
</svg>
